<svg xmlns="http://www.w3.org/2000/svg" viewBox="0 0 672.13 263.92"><defs><style>.cls-1,.cls-2{fill:#fff;}.cls-2{font-size:86.5px;font-family:HurmeGeometricSans1-Regular, "Hurme Geometric Sans 1";letter-spacing:0.28em;}.cls-3{letter-spacing:0.28em;}.cls-4{letter-spacing:0.27em;}.cls-5{letter-spacing:0.28em;}.cls-6{letter-spacing:0.28em;}.cls-7{letter-spacing:0.28em;}.cls-8{letter-spacing:0.26em;}.cls-9{letter-spacing:0.27em;}.cls-10{letter-spacing:0.3em;}</style></defs><g id="Layer_2" data-name="Layer 2"><g id="Layer_1-2" data-name="Layer 1"><path class="cls-1" d="M125,14.22l-.68-1L115.08.09H11.54V139.7H113.29l11-15.43,3.27-4.55,36.14-50.44Zm-.68,90H57.79V85.83l66.54.36Zm0-51.9L57.79,52V35.59h66.54Z"/><polygon class="cls-1" points="214.58 139.68 166.94 139.68 190.47 102.39 214.58 139.68"/><polygon class="cls-1" points="214.8 0.09 191.66 35.19 167.93 0.09 214.8 0.09"/><path class="cls-1" d="M623.28,13.82A77.85,77.85,0,0,0,595.36,0H482.52V.09h-8.89L439.52,81.66l-.29-.66-12.54,31.08q5-18.67,10-37.35v0L406.23.09H265.47l-6.8,9.43L256.19,13,217,67.49l39.21,55,2.48,3.49,9.78,13.71H372.27V104.18h-69.8V85.83h59V52h-59V35.59h67.22v-2.1l44.9,106.21h46.28l31.72-75.06c-.11,1.74-.18,3.47-.18,5.25,0,42.28,33.32,73,78.8,73S650,112.17,650,69.89C650,46.65,639.91,26.89,623.28,13.82Zm-52.07,91c-17.36,0-31.31-13.18-31.31-34.91s14-34.9,31.31-34.9,31.3,13.16,31.3,34.9S588.56,104.8,571.21,104.8Z"/><text class="cls-2" transform="translate(0 244.89)">D<tspan class="cls-3" x="86.9" y="0">E</tspan><tspan class="cls-4" x="158.23" y="0">S</tspan><tspan class="cls-5" x="228.16" y="0">I</tspan><tspan class="cls-6" x="275.56" y="0">G</tspan><tspan class="cls-7" x="364.1" y="0">N</tspan><tspan class="cls-8" x="453.07" y="0">E</tspan><tspan class="cls-9" x="523.48" y="0">R</tspan><tspan class="cls-10" x="599.56" y="0">S</tspan></text></g></g></svg>