<svg xmlns="http://www.w3.org/2000/svg" viewBox="0 0 434.09 137.51"><defs><style>.cls-1{fill:#0a007a;}</style></defs><g id="Layer_2" data-name="Layer 2"><g id="Layer_1-2" data-name="Layer 1"><g id="Logo"><path class="cls-1" d="M264.72,30.72V81.55H257V69.69H239.71l-7.49,11.86h-9.13l32.15-50.83ZM244.58,62H257V42.41Z"/><path class="cls-1" d="M310.07,30.72V81.55H302L280.26,45.21V81.55h-7.7V30.72h8.06l21.7,36.34V30.72Z"/><path class="cls-1" d="M331.11,82a19.89,19.89,0,0,1-9.3-2.69,14.42,14.42,0,0,1-6.58-7.54l7.25-2.66a7.27,7.27,0,0,0,3.66,3.8,13.12,13.12,0,0,0,5.33,1.39,10.64,10.64,0,0,0,7.35-2.17,6.22,6.22,0,0,0,2.59-4.55q.22-4.86-10.19-7.78-16.31-4.58-15.81-15.52A13.27,13.27,0,0,1,322,32.82a19.69,19.69,0,0,1,11.44-2.6q8.1.36,13,5.65l-5.65,5.26a10.63,10.63,0,0,0-7.7-3.2,13.81,13.81,0,0,0-5.93.89,6.17,6.17,0,0,0-4,5.83q-.21,4.79,10.2,7.7Q342.7,55,346.6,60.1A11.81,11.81,0,0,1,349.12,68a13.61,13.61,0,0,1-5.47,10.23,17.94,17.94,0,0,1-11.58,3.87C331.74,82.05,331.42,82,331.11,82Z"/><path class="cls-1" d="M389.32,30.72V81.55h-7.75V69.69H364.31l-7.49,11.86h-9.13l32.14-50.83ZM369.18,62h12.39V42.41Z"/><path class="cls-1" d="M228.42,94.55h4.5v42h-4.5Z"/><path class="cls-1" d="M257.61,105.65c6.24,0,11,3.48,11,10.32v20.58h-4.2V119c0-6.66-2.58-9.6-8-9.6-5.94,0-10.92,3-10.92,9.6v17.58h-4.2v-30h4.2v.78a16.49,16.49,0,0,1-1.56,5.58l.84.36c.66-1.62,1.5-3.84,2.88-5C250.59,105.83,253.17,105.65,257.61,105.65Z"/><path class="cls-1" d="M279.24,110.75h-6v-4h6V97.25h4.2v9.48h7.8v4h-7.8v18.54c0,2.52,1.14,3.24,4,3.24h3.54v4h-4.8c-4.08,0-6.9-2.82-6.9-7.26Z"/><path class="cls-1" d="M293.64,121.37c0-8.94,6.24-15.72,15-15.72,9.06,0,14.7,7.14,14.64,15.18,0,.6,0,2-.06,2.52H298c0,4.2,3.72,10.14,11.52,10.14,5,0,8.1-3,8.82-5.52h4.32a13.35,13.35,0,0,1-12.84,9.54C299.28,137.51,293.64,130.31,293.64,121.37Zm25.08-2c0-5.16-3.78-9.66-10-9.66s-10.74,5-10.74,9.66Z"/><path class="cls-1" d="M346.41,105.65v4c-6.84,0-13.38,2.16-13.38,10.5v16.38h-4.2v-30H333v2.34a15.55,15.55,0,0,1-1.2,4.56l.84.3c.48-1.38.9-3.24,1.86-4.38C337.11,106.31,339.63,105.65,346.41,105.65Z"/><path class="cls-1" d="M367.75,105.65c6.24,0,11,3.48,11,10.32v20.58h-4.2V119c0-6.66-2.58-9.6-8-9.6-5.94,0-10.92,3-10.92,9.6v17.58h-4.2v-30h4.2v.78a16.49,16.49,0,0,1-1.56,5.58l.84.36c.66-1.62,1.5-3.84,2.88-5C360.73,105.83,363.31,105.65,367.75,105.65Z"/><path class="cls-1" d="M383.93,121.37c0-8.94,6.24-15.72,15-15.72,9.06,0,14.7,7.14,14.64,15.18,0,.6,0,2-.06,2.52H388.25c0,4.2,3.72,10.14,11.52,10.14,5,0,8.1-3,8.82-5.52h4.32a13.35,13.35,0,0,1-12.84,9.54C389.57,137.51,383.93,130.31,383.93,121.37Zm25.08-2c0-5.16-3.78-9.66-10-9.66s-10.74,5-10.74,9.66Z"/><path class="cls-1" d="M422.09,110.75h-6v-4h6V97.25h4.21v9.48h7.79v4H426.3v18.54c0,2.52,1.13,3.24,4,3.24h3.53v4H429c-4.07,0-6.9-2.82-6.9-7.26Z"/><g id="Rights_Reserved" data-name="Rights Reserved"><path class="cls-1" d="M400.24,31.89a12,12,0,0,1-3.63-8.77,11.91,11.91,0,0,1,3.63-8.74,12.35,12.35,0,0,1,17.53,0,11.91,11.91,0,0,1,3.63,8.74,12,12,0,0,1-3.63,8.77,12.4,12.4,0,0,1-17.53,0Zm2.14-15.39a9,9,0,0,0-2.76,6.62,9,9,0,0,0,2.76,6.64,9.37,9.37,0,0,0,13.24,0,9,9,0,0,0,2.76-6.64,9,9,0,0,0-2.76-6.62,9.32,9.32,0,0,0-13.24,0Zm4.89,8.61h1.78l2.71,5.2h3.38l-3-5.75a4.29,4.29,0,0,0,2.4-4A4.61,4.61,0,0,0,410,16h-5.73V30.31h3Zm0-6.14H410a1.52,1.52,0,0,1,1.1.45,1.55,1.55,0,0,1,.45,1.12A1.54,1.54,0,0,1,410,22.09h-2.71Z"/></g><polygon class="cls-1" points="174.25 126.16 169.03 117.1 123.95 117.1 120.93 122.33 115.7 131.39 112.68 136.62 179.48 136.62 179.48 135.22 174.25 126.16"/><polygon class="cls-1" points="129.99 106.64 135.22 97.58 140.45 88.53 144.98 80.68 146.49 78.07 123.95 78.07 120.93 72.84 118.32 68.31 115.71 63.78 115.7 63.78 112.69 58.55 135.22 58.55 129.99 49.49 125.46 41.65 123.95 39.03 120.93 33.8 115.7 24.75 112.68 19.52 110.47 15.69 105.94 7.84 101.42 0 96.89 7.84 92.36 15.69 90.15 19.52 96.19 29.97 96.19 29.98 98.8 34.51 101.42 39.03 108.56 51.41 112.68 58.55 90.14 58.55 87.13 63.78 87.12 63.78 84.51 68.31 81.9 72.84 78.88 78.07 56.34 78.07 57.85 75.45 62.38 67.61 67.61 58.55 72.84 49.49 77.37 41.65 78.88 39.03 81.9 33.8 87.13 24.75 90.15 19.52 67.61 19.52 62.38 28.58 60.47 31.89 58.55 35.21 56.34 39.03 50.71 48.79 45.07 58.55 42.86 62.38 40.95 65.69 39.04 69.01 33.81 78.07 31.19 82.6 23.35 96.18 23.35 97.58 90.15 97.58 91.66 94.97 101.42 78.07 111.17 94.97 112.68 97.58 108.56 104.73 101.42 117.1 123.95 117.1 125.46 114.49 129.99 106.64"/><polygon class="cls-1" points="3.83 129.99 1.91 133.31 0 136.62 0 136.62 24.71 136.62 45.07 136.62 46.69 136.62 57.66 136.62 90.15 136.62 96.19 126.16 98.8 121.63 101.42 117.1 11.27 117.1 3.83 129.99"/></g></g></g></svg>