<svg xmlns="http://www.w3.org/2000/svg" viewBox="0 0 323.54 177.58"><defs><style>.cls-1{fill:#754d23;}.cls-2{fill:#ff4300;}</style></defs><g id="Layer_2" data-name="Layer 2"><g id="Layer_1-2" data-name="Layer 1"><path class="cls-1" d="M136.22,175.72a86.76,86.76,0,0,1-66.41-30.89c-.31-1-.57-1.94-.79-2.9,1.24,1.58,2.55,3.12,3.91,4.61l.18.19h0a85.55,85.55,0,0,0,60.31,27.72c.93,0,1.86,0,2.8,0A85.51,85.51,0,0,0,199,147.09q-2.64-.51-5.18-1.25a80.82,80.82,0,0,1-57.6,24.06c-1.31,0-2.61,0-3.89-.09-.56-2.09-1.27-4.33-2.15-6.66a72.54,72.54,0,0,0-6.26-12.67.21.21,0,0,1,0-.06c-1.32-2.21-3.08-4.76-4.28-6.53a84.27,84.27,0,0,0-6.43-7.9,86.14,86.14,0,0,1-7-8.68c-1-1.54-2.1-3.35-1.52-5.33s2.32-2.87,4-3.58c2.06-.89,4.67-2.52,5.4-5.27.66-2.5-.31-5.63-2.73-8.83-.6-.79-1.31-1.57-2.06-2.41-2.48-2.75-5.48-6.09-5.35-11A31.61,31.61,0,0,1,95.19,96l-2.75,1-.51-2.89c-.1-.52-.18-1-.27-1.6A32.44,32.44,0,0,0,91,89c0-.14-.07-.27-.1-.4-4.16,5.67-6.49,10.87-7.35,16.34a71.77,71.77,0,0,1-3.75,14.21c-3,8-5.27,16.5-2.33,25.52a81.55,81.55,0,0,1-9.59-12.22A38.67,38.67,0,0,1,71,117a62.43,62.43,0,0,0,4.35-14.41C77,92.48,81.24,84.65,88.24,78.65a6.29,6.29,0,0,0,1-1s0,0,0,0a161.82,161.82,0,0,1-7.34-15.14c-1.62-3.68-3.3-7.47-5.15-11.07a33.74,33.74,0,0,0-6.81-9.25,81,81,0,0,1,124-10.46q2.55-.73,5.19-1.25A85.62,85.62,0,0,0,66.25,39.34c-.34-.24-.68-.46-1-.67a86.86,86.86,0,0,1,135.21-8.43c.72-.13,1.46-.24,2.19-.34a88.69,88.69,0,0,0-139,7.86,31.64,31.64,0,0,0-3.94-1.71l-5.92-.34L48.22,54.8c-.41,1.41-.85,2.82-1.28,4.23-.91,3-1.86,6.1-2.56,9.16-1.14,4.92-1.23,7.93-.26,9,.58.62,1.91.9,4,.85.57,0,1.19-.06,1.87-.13.4,0,.82-.08,1.26-.14.61-.07,1.25-.17,1.92-.28,1-.17,2-.36,2.84-.57,5.84-1.41,9.5-3.93,12-8.16l6.49-11.09-2,12.69c-1.23,7.83-5,12.69-11.53,14.85l-2.24.77c-1.17.41-2.35.82-3.56,1.2-1,.3-2,.59-3,.82-.56.13-1.1.24-1.63.32s-.82.1-1.22.14a14.59,14.59,0,0,1-1.86,0,11.56,11.56,0,0,1-7.16-2.54c-3-2.43-4.43-6.32-4.25-11.21.32-8.29,4.25-15.45,7.73-21.77l9.48-17.26-6.69-.38a44.2,44.2,0,0,0-15.85,4.14c-5.79,2.6-9.09,5.83-10.41,10.19C18.64,55,15.1,58.57,9.11,60.81,7.1,61.56,5,62.35,3,63.2c-1.1.47-2.5,1.27-2.89,2.42s.21,2.63.79,3.69c.33.6.69,1.19,1.08,1.83a23.58,23.58,0,0,1,2.46,4.8C6.31,81.43,10.22,84.48,18,86.46a25,25,0,0,0,6.6.45l1.77,0h.06c10.37,0,15.79,4.29,18.13,14.32.39,1.71.73,3.44,1.05,5.12a78.82,78.82,0,0,0,1.87,8.14c2.83,9.15,8.31,16.58,14.63,23.1a88.71,88.71,0,0,0,140.56,10.11c-.73-.1-1.47-.21-2.19-.33A86.73,86.73,0,0,1,136.22,175.72Z"/><path class="cls-1" d="M129.8,33.39h32.32A31.14,31.14,0,0,1,185,42.84a31.14,31.14,0,0,1,9.45,22.86,31.76,31.76,0,0,1-3.75,15.37,32.53,32.53,0,0,1,22.22,30.8,32.26,32.26,0,0,1-32.32,32.31h0A50.78,50.78,0,0,1,129.8,93.4Zm18.47,46.16h13.85A13.79,13.79,0,0,0,176,65.7a13.79,13.79,0,0,0-13.84-13.85H148.27ZM180.58,98H148.27v1.35a26.35,26.35,0,0,0,26.35,26.35h6a13.85,13.85,0,1,0,0-27.7Z"/><path class="cls-2" d="M323.54,82.17l-.13,12.34a51.61,51.61,0,0,1-15.57,33.9,54.26,54.26,0,0,1-39.46,15.77,51.73,51.73,0,0,1-36.63-15.72A53.06,53.06,0,0,1,219.52,110c-.31,2.58-2.5,18.4-16.56,27.88a38,38,0,0,1-20.69,6.35c15.16-7.48,21.87-16.39,25.21-22.78C216,105.13,209,93,220,69.59a58.83,58.83,0,0,1,11.72-17.17,51.76,51.76,0,0,1,38-15.75h.06a52,52,0,0,1,38.06,15.7s0,0,0,0a3,3,0,0,1-.05,4.14l-7.6,7.58a2.83,2.83,0,0,1-4,0,0,0,0,0,1,0,0,37,37,0,0,0-5.57-4.59,37.28,37.28,0,0,0-58.07,31,37.15,37.15,0,0,0,37.21,37.2,37.1,37.1,0,0,0,26.3-10.86A35.73,35.73,0,0,0,306.15,98.7H269.78a16.52,16.52,0,0,1,16.53-16.53Z"/><path class="cls-1" d="M129.8,144.18V117.31a38.87,38.87,0,0,0,25.29,26.87Z"/></g></g></svg>