<svg xmlns="http://www.w3.org/2000/svg" xmlns:xlink="http://www.w3.org/1999/xlink" viewBox="0 0 1270.01 1062.08"><defs><style>.cls-1{fill:url(#linear-gradient);}.cls-2{fill:#1d1d1b;}.cls-3{fill:url(#linear-gradient-2);}.cls-4{fill:url(#linear-gradient-3);}.cls-5{fill:url(#linear-gradient-4);}.cls-6{fill:url(#linear-gradient-5);}.cls-7{fill:url(#linear-gradient-6);}.cls-8{fill:#fff;}</style><linearGradient id="linear-gradient" x1="635" y1="1062.08" x2="635" gradientUnits="userSpaceOnUse"><stop offset="0" stop-color="#007bff"/><stop offset="0.15" stop-color="#0fa0ff"/><stop offset="0.31" stop-color="#1cc2ff"/><stop offset="0.47" stop-color="#27ddff"/><stop offset="0.64" stop-color="#2ef0ff"/><stop offset="0.82" stop-color="#33fbff"/><stop offset="1" stop-color="#34ffff"/></linearGradient><linearGradient id="linear-gradient-2" x1="213.46" y1="765.44" x2="213.46" y2="392.31" gradientUnits="userSpaceOnUse"><stop offset="0" stop-color="#34ffff"/><stop offset="0.18" stop-color="#33fbff"/><stop offset="0.36" stop-color="#2ef0ff"/><stop offset="0.53" stop-color="#27ddff"/><stop offset="0.69" stop-color="#1cc2ff"/><stop offset="0.85" stop-color="#0fa0ff"/><stop offset="1" stop-color="#007bff"/></linearGradient><linearGradient id="linear-gradient-3" x1="423.75" y1="688.44" x2="423.75" y2="349.73" xlink:href="#linear-gradient-2"/><linearGradient id="linear-gradient-4" x1="652.12" y1="654.58" x2="652.12" y2="342.89" xlink:href="#linear-gradient-2"/><linearGradient id="linear-gradient-5" x1="870.75" y1="684.38" x2="870.75" y2="353.6" xlink:href="#linear-gradient-2"/><linearGradient id="linear-gradient-6" x1="1072.04" y1="765.21" x2="1072.04" y2="386.2" xlink:href="#linear-gradient-2"/></defs><g id="Layer_2" data-name="Layer 2"><g id="Layer_1-2" data-name="Layer 1"><g id="Logo"><path class="cls-1" d="M156.41,1047.72l18.11-164.19-35,15.4L116,909.26l-8.42,3.67L0,869.07,77.87,384l11.34-4.62c39.8-16.23,73.53-29.06,104-39.55-35.41-75.21-5.49-181.82,50.78-241A250.63,250.63,0,0,1,321.1,41.51C351.54,27,384,19.28,415.1,19.28a182.14,182.14,0,0,1,42.3,4.89l.45-11.75L477,10.78C540,5.4,591.8,2.9,640.05,2.9c12.42,0,24.67.17,36.62.52L676.52,0l68.33,6.86L795.08,10l.07,2.24C859,19.86,926.74,32.91,1001.57,52l14.57,3.7,15.47,135.91-7.06,5.53a160.67,160.67,0,0,1,27.27,67.83c3.53,23.12,1.56,45.36-5.51,64.88,41.17,13,85.63,29.35,135.09,49.63l11.3,4.63,38.53,240-1.5-.61,1.49,9.31,1,.44L1270,868.74,1162.4,912.66l-42.73-18.74c.33,2.89.77,6.61.86,7.4,4.67,35.15-3.46,65.83-23.5,88.74-19.47,22.25-48.29,34.55-81.21,34.67-14.64,9-32.34,13.73-51.7,13.73S923.91,1033.69,905,1025l-9-2.09c-26.38-6.11-56.28-13-82.13-17.14l-.28,0c-33.66-5.79-69.6-10.11-106.83-12.85-25.69-1.63-50.74-2.45-74.45-2.45-24.88,0-49.1.9-72,2.69h-.21c-10.35.71-27.17,2.3-40.69,3.57L508,997.75a139.44,139.44,0,0,1-19.2,4.58A121,121,0,0,1,469,1004c-1.3,0-2.61,0-3.92-.07-24.37,4.49-57.72,11.33-87.47,17.92l-5.64,1.52c-31.83,8.57-84.14,24.93-118.76,35.76l-9.48,3Z"/><path class="cls-2" d="M1245.78,855.12l-33.15-206.67-1-.44-9.51-59.41,1.48.61-30.45-189.64c-51.54-21.13-105.25-41.08-158.09-56.54,29.68-41.33,18.15-108.42-21.46-149.35l15-11.75L996.21,73C923.52,54.55,849,39.56,774,31.71l0-1.25-30.87-1.9-43.7-4.39.09,1.93c-72.9-3.68-147.77.15-220.62,6.37L478,53.93c-74.84-32.76-164.64.53-218.08,59.71-56.33,59.11-84.37,173.19-34,238.31-42.51,13.57-86.66,30.58-128.49,47.62L24.23,855.45l83.08,33.85c10.11-4.41,84.68-37.31,93-40.75-6,54.35-13.9,126.05-20,181l61.85,10.17c33.89-10.6,90.43-28.35,124.15-37.43l0-.29c29.24-6.56,67.92-14.63,97.26-20a96.43,96.43,0,0,0,21.6-1.21,117.48,117.48,0,0,0,18.35-4.55c15-1.36,40.58-3.91,55.08-4.9,49.57-3.87,100-3.4,149.63-.26,36.36,2.68,73,6.93,109,13.12,30.34,4.82,64.87,13.13,94.89,20,30,14.44,70.12,19.05,97.21-1.5,55.11,2.94,98.15-34.67,89.56-98.77l-1.3-11.17a117.38,117.38,0,0,0-7.45-31.54l-.5-4.32,73,32Z"/><path class="cls-2" d="M1245.78,855.12l-33.15-206.67-1-.44-9.51-59.41,1.48.61-30.45-189.64c-51.54-21.13-105.25-41.08-158.09-56.54,29.68-41.33,18.15-108.42-21.46-149.35l15-11.75L996.21,73C923.52,54.55,849,39.56,774,31.71l0-1.25-30.87-1.9-43.7-4.39.09,1.93c-72.9-3.68-147.77.15-220.62,6.37L478,53.93c-74.84-32.76-164.64.53-218.08,59.71-56.33,59.11-84.37,173.19-34,238.31-42.51,13.57-86.66,30.58-128.49,47.62L24.23,855.45l83.08,33.85c10.11-4.41,84.68-37.31,93-40.75-6,54.35-13.9,126.05-20,181l61.85,10.17c33.89-10.6,90.43-28.35,124.15-37.43l0-.29c29.24-6.56,67.92-14.63,97.26-20a96.43,96.43,0,0,0,21.6-1.21,117.48,117.48,0,0,0,18.35-4.55c15-1.36,40.58-3.91,55.08-4.9,49.57-3.87,100-3.4,149.63-.26,36.36,2.68,73,6.93,109,13.12,30.34,4.82,64.87,13.13,94.89,20,30,14.44,70.12,19.05,97.21-1.5,55.11,2.94,98.15-34.67,89.56-98.77l-1.3-11.17a117.38,117.38,0,0,0-7.45-31.54l-.5-4.32,73,32Z"/><path class="cls-3" d="M293.26,667.71c26.26-40.28,27.45-96.21,32-142.47,3.2-32.4,18.21-92.15-4.43-121.67C304.32,382,265.49,396.93,245,403q-50,16.09-98.69,35.65L93.8,765.44Q147.93,741.65,203.59,722C236.24,710.39,273.45,698.08,293.26,667.71Zm-46.12-122c-3.36,27.28-3.32,61.12-15,86.13-3,6.49-8.06,10.23-20.71,14.55-10.11,3.46-15.18,5.25-25.31,9l25.08-182.15c9.54-3.3,14.31-4.89,23.84-8,11.91-3.86,16.55-2.91,17.79.46C260.5,486.39,250.08,521.83,247.14,545.69Z"/><path class="cls-4" d="M383.78,367.64Q349.64,528,315.83,688.44q40.38-9.87,81.16-17.51,5.81-39.23,11.63-78.43,19-3.25,38-5.93,1.06,38,2.11,76c27.61-3.86,55.18-7.2,82.95-9.69Q519,501.33,506.18,349.73C465.15,354.33,424.37,360,383.78,367.64Zm32.85,159.68Q426.3,472.41,436,417.5l5.2-.77q2.91,53,5.81,106Q431.79,524.81,416.63,527.32Z"/><path class="cls-5" d="M680.25,442.9l-2.88-.1q-25-50.07-50.47-99.91-35.73.44-71.35,2.59-4.14,153.12-8.27,306.23,36.56-2.41,73.12-3.06.4-85.86.79-171.73l2.91,0q46.15,86.76,90.9,174.25,21,1.36,42,3.44-5.72-153.36-11.44-306.71-33.35-2.87-66.73-4.23Z"/><path class="cls-6" d="M861.83,415.81c12.28,2.11,18.55,5.71,20.43,10.89,5.18,14.27,5.72,31.06,7.07,46.15q35.61,7.14,70.78,16c-.57-9.94-1.06-19-1.85-26.49-2.54-24.45-6.66-51.23-23.45-70.42-18.93-21.62-50.21-30.12-77.34-34.3-23.43-3.62-60-10.6-76.66,11.22-23.56,30.82-13.36,88.24-11.84,123.81,1.93,44.87-1.28,105,24.95,144.42,19.48,29.23,58.18,35.29,90.16,41.65,23.32,4.65,61.49,13,80.12-7.52,16.66-18.34,11.59-52,9.21-74.17-1-9.07-2.5-19.08-4.56-29.53q-35.64-9.16-71.63-16.63c1.42,15.86,3.81,33.33-1.37,48.81-1.58,4.79-6.93,5.84-17.47,3.89-15.06-2.79-20.21-5.77-22.61-11.67-10.89-26.8-9.12-61.88-11-89.95-1.64-24.34-8.94-57.95-.84-81.86C845.5,415.42,850,413.78,861.83,415.81Z"/><path class="cls-7" d="M1002.86,701.48a1481.14,1481.14,0,0,1,173.39,63.73q-6.32-39.3-12.61-78.61-44.46-19.12-89.92-35.56-4.21-31.35-8.44-62.71,44.07,15.63,87.09,33.82-5.26-32.85-10.52-65.71-42.18-17.49-85.24-32.49l-7.23-53.8q43,14.75,85.11,32l-10.19-63.51A1406.19,1406.19,0,0,0,967.83,386.2Q985.32,543.84,1002.86,701.48Z"/><path class="cls-8" d="M277.25,327.53c25.19,21.8,62.4,18.38,92.32,12.73,72.56-13.68,132.9-67.75,136.54-145,3.25-69-47.44-110.82-114.75-97.37-71.67,14.32-126.1,75.94-135.84,147.69C251.75,273.48,254.36,307.74,277.25,327.53ZM326,226.11c4.3-36.15,22.94-71.51,61-79.63,38.4-8.19,51.23,25.49,48.85,57.76-2.79,38-21.82,72.21-61.28,80.46C334.34,293.11,321.87,260.58,326,226.11Z"/><path class="cls-8" d="M624.76,258.14c-18.88.15-39.33-4.79-47.63-23.8q-31.64,15.36-62.72,31.79C533.9,304.75,586,313,624.56,312.69c46.81-.43,115.49-18.15,114-76.74-.92-35.59-36.49-59.16-67.27-68.22q25.38-23.28,51.16-46.11-.63-20-1.27-39.89a1383.5,1383.5,0,0,0-189.8,1.34q-.89,23.1-1.78,46.2,54.87-4.32,109.83-4.44-28,25.8-55.43,52.13,13.28,14.4,26.4,28.91c5.83-.12,8.74-.16,14.57-.21,16.79-.4,42,5.5,42.26,26.37C667.49,253.16,640.93,258,624.76,258.14Z"/><path class="cls-8" d="M865.1,278.84c-20.45-2.83-40.27-13.16-49.77-32.94-20.24,6.38-40.43,13-60.43,20.11,22.86,40.9,70.72,60.28,114.6,68.18,42.9,7.72,115.08,4.82,107.37-56.69-4.76-37.95-40-67.24-72.88-82q23.37-19.05,47.11-37.64-2.33-20.44-4.66-40.89A1394.31,1394.31,0,0,0,756.59,84.6q1,23.15,2.08,46.28c36.82,3.81,73.4,8.81,109.85,15.25Q842.66,167.25,817.38,189q14.52,17,28.9,34.1c5.83.94,8.75,1.43,14.59,2.45,18.21,3,42.08,13.58,44.49,34.57C908,282.85,878.55,280.69,865.1,278.84Z"/><path class="cls-8" d="M324,735.92q-29.26,7.27-58.23,15.6Q254.63,852.23,243.51,953q15-4.65,30.1-9,4.22-41.21,8.42-82.42,15.42-4.32,31-8.22c25.28-6.44,41.95-23,44.22-49.36q1.61-19.54,3.2-39.1C363.25,740.14,347.32,729.34,324,735.92Zm9.21,37.93q-1.44,16.11-2.89,32.21c-1.13,12.69-8.42,22-20.91,25.24-10,2.54-14.94,3.87-24.92,6.62l7.26-71.11c9.76-2.64,14.64-3.9,24.39-6.34C329.4,757.15,334.21,762.24,333.17,773.85Z"/><path class="cls-8" d="M358.29,922.79q14.91-3.24,29.92-6.12l13.86-197.19c-11.28,2-16.92,3.08-28.21,5.35Q366.09,823.82,358.29,922.79Z"/><path class="cls-8" d="M462.77,708.39c-29.78,3.78-50.35,26.37-52.66,56l-6.69,99.92c-2,31.07,19,48.39,49.31,43.37,30.1-5,53.31-24.86,53.6-57.27q1.85-49.59,3.7-99.16C512.25,722,490.7,704.85,462.77,708.39Zm19.45,43.73q-2.34,51.54-4.69,103.09c.34,14.39-10.3,24.69-23.8,26.84-14.12,2.26-22.26-6.95-21.31-20.77l6.06-103.41c.95-13.57,9.52-23.49,22.75-25.87C474.07,729.69,483.69,739.23,482.22,752.12Z"/><path class="cls-8" d="M602.86,788.44c-.14,15.91.17,31.81.52,47.71l-1.3,0q-21-67.95-42.08-135.85-18.46,1.21-36.87,2.79-3.32,97.62-6.61,195.23c10.46-1,15.68-1.4,26.14-2.16l3-112.54c.25-13.44.28-26.83.12-40.27l1.27-.09q23.22,75.09,46.24,150.23,17.34-.59,34.72-.67l.4-194.79c-9.86.05-14.8.13-24.66.38Q603.28,743.44,602.86,788.44Z"/><path class="cls-8" d="M670.08,868.36l-.68-67.84q22.4.6,44.75,2c-.23-9.67-.34-14.47-.56-24q-22.19-1.39-44.43-2-.27-27.72-.55-55.44,23.91.76,47.79,2.2c-.22-9.12-.33-13.64-.55-22.64q-37.47-2.22-75-2.61l.33,194.79q41.09.4,82,3c-.25-10.06-.38-15.05-.62-25C705.13,869.66,687.6,868.86,670.08,868.36Z"/><path class="cls-8" d="M761.74,874.17q-1.23-34-2.47-68,22.46,2.22,44.82,5.21c-.48-9.7-.72-14.52-1.19-24.09q-22.2-3-44.5-5.16-1-27.78-2-55.57,24,2.46,47.87,5.58c-.47-9.16-.7-13.7-1.15-22.73q-37.46-4.86-75-7.89,2.73,97.54,5.47,195.09c27.48,2.25,54.8,5.24,82.12,8.94-.52-10.09-.77-15.11-1.28-25.07C796.87,878,779.32,875.94,761.74,874.17Z"/><path class="cls-8" d="M898.9,821.09c0-.48-.06-.71-.09-1.19,14.54-.56,21.52-13.72,19.29-27.28-.89-10.68-1.33-16-2.21-26.48-1.79-25.1-18-41.66-42.66-45.81q-28.89-5.12-57.9-9.21,5.31,98,10.63,195.93c11.67,1.73,17.51,2.67,29.19,4.67l-5.52-88.25c10.48,1.73,15.72,2.65,26.21,4.59,12.13,2.14,18.87,9.64,19.51,21.88l5.31,70.39c11.71,2.43,17.56,3.71,29.28,6.41l-5.73-68.55C923.1,841.35,914.94,827.24,898.9,821.09Zm-25.59-15.48c-10-1.84-15-2.71-25.07-4.35l-4-63.27c9.71,1.54,14.56,2.36,24.28,4.1,11.29,1.47,19.57,9.7,20,21.23.77,10.26,1.16,15.43,2,25.84C891.58,804.08,884.88,807.73,873.31,805.61Z"/><path class="cls-8" d="M1043.49,898.4c-1.32-16-8.88-30.58-20-41.92-15.95-16.37-34.85-29.72-51.8-45.12C961,801.31,958,795.7,957.22,787.22c-.29-3-.43-4.56-.72-7.58-2.08-12.52,9.82-17.64,20.27-14.23,13,4.23,24.2,15,25,29.61.49,4.47.73,6.71,1.21,11.21,10.78,3.13,16.17,4.75,27,8.14-.4-3.45-.6-5.17-1-8.6-3.55-31.92-23.59-57.66-55-64.53-24-5.24-49.37-.6-45.93,30.45.29,3.36.44,5,.73,8.42,1.54,15.22,9,29.17,19.55,39.81,14.88,15,32.08,28.34,47.8,42.91,9,7.93,16,17.7,16.84,30,.41,3.73.61,5.6,1,9.35,2.49,15.27-8.35,20.6-21.65,16.83-15.78-4.48-26.35-16.28-28-32.77-.45-4.83-.68-7.23-1.13-12-11.14-2.86-16.71-4.23-27.83-6.84.4,4.65.6,7,1,11.67,3.24,35.26,26,57.13,59.27,66.49,29.27,8.23,54.77,1.06,49.28-34.29C1044.39,906.07,1044.09,903.51,1043.49,898.4Z"/></g></g></g></svg>