<svg xmlns="http://www.w3.org/2000/svg" viewBox="0 0 596.47 150.55"><defs><style>.cls-1,.cls-21{font-size:72px;}.cls-1,.cls-20{fill:#00ff87;}.cls-1{font-family:Literal-Bold, Literal;font-weight:700;}.cls-2{letter-spacing:-0.02em;}.cls-3{letter-spacing:-0.02em;}.cls-4{letter-spacing:-0.02em;}.cls-5{letter-spacing:-0.01em;}.cls-6{letter-spacing:0em;}.cls-7{letter-spacing:-0.01em;}.cls-8{letter-spacing:-0.02em;}.cls-9{letter-spacing:-0.01em;}.cls-10{font-size:65.8px;}.cls-10,.cls-21{fill:#1c1c1c;font-family:Literal-Light, Literal;font-weight:300;}.cls-11{letter-spacing:-0.01em;}.cls-12{letter-spacing:-0.01em;}.cls-13{letter-spacing:0em;}.cls-14{letter-spacing:-0.02em;}.cls-15{letter-spacing:-0.01em;}.cls-16{letter-spacing:-0.01em;}.cls-17{letter-spacing:-0.02em;}.cls-18{letter-spacing:-0.02em;}.cls-19{letter-spacing:-0.02em;}</style></defs><g id="Layer_2" data-name="Layer 2"><g id="DollaMoja_Hub_Logo" data-name="DollaMoja Hub Logo"><g id="Basic_Mode" data-name="Basic Mode"><g id="Word_Mark" data-name="Word Mark"><text class="cls-1" transform="translate(184.11 69.31)"><tspan class="cls-2">D</tspan><tspan class="cls-3" x="53.02" y="0">o</tspan><tspan class="cls-4" x="99.89" y="0">l</tspan><tspan class="cls-5" x="121.25" y="0">l</tspan><tspan class="cls-6" x="143.8" y="0">a</tspan><tspan class="cls-7" x="188" y="0">M</tspan><tspan class="cls-8" x="256.53" y="0">o</tspan><tspan class="cls-9" x="302.83" y="0">j</tspan><tspan x="326.39" y="0">a</tspan></text><text class="cls-10" transform="translate(184.41 134.19)"><tspan class="cls-11">H</tspan><tspan class="cls-12" x="46.88" y="0">u</tspan><tspan class="cls-13" x="82.87" y="0">b </tspan><tspan class="cls-14" x="141.04" y="0">L</tspan><tspan class="cls-15" x="175.91" y="0">i</tspan><tspan class="cls-16" x="189" y="0">m</tspan><tspan class="cls-17" x="245.79" y="0">i</tspan><tspan class="cls-18" x="258.46" y="0">t</tspan><tspan class="cls-19" x="290.21" y="0">e</tspan><tspan x="327.25" y="0">d</tspan></text></g><g id="Logo_Mark" data-name="Logo Mark"><path class="cls-20" d="M172.34,71.82v6.91a69.91,69.91,0,0,1-5.61,27.92,72,72,0,0,1-15.31,22.76,73.55,73.55,0,0,1-22.76,15.42q-3.07,1.35-6.26,2.38a8.46,8.46,0,0,1-11.1-8V60.82a8.45,8.45,0,0,0-8.45-8.45H59.49a8.44,8.44,0,0,0-8.44,8.45V72.76a8.45,8.45,0,0,0,8.44,8.45h0a8.44,8.44,0,0,1,8.45,8.44V142.1a8.45,8.45,0,0,1-8.45,8.45H0V0H100.73a70,70,0,0,1,27.93,5.61A71.2,71.2,0,0,1,151.42,21a73.36,73.36,0,0,1,15.31,22.86A70,70,0,0,1,172.34,71.82Z"/></g><text class="cls-21" transform="translate(553.71 64.4)">™</text></g></g></g></svg>